<svg width="113" height="30" fill="none" xmlns="http://www.w3.org/2000/svg"><path d="M102.469 0c2.856 0 5.249.49 7.18 1.468.582.29.952.727 1.111 1.309.158.581.079 1.163-.238 1.745-.318.608-.728.992-1.23 1.15-.503.133-1.031.08-1.587-.158-.846-.37-1.653-.622-2.42-.754-.766-.159-1.679-.238-2.737-.238-.872 0-1.639.106-2.3.317-.635.186-1.177.45-1.627.794-.45.317-.793.687-1.031 1.11a2.582 2.582 0 00-.317 1.23v.238c0 .503.079.939.238 1.31.185.37.489.713.912 1.03.45.291 1.058.569 1.825.833.767.239 1.758.476 2.975.714 3.305.688 5.672 1.706 7.1 3.055 1.428 1.348 2.142 3.08 2.142 5.196v.357c0 2.724-.886 4.8-2.657 6.228-1.772 1.428-4.39 2.142-7.855 2.142-1.639 0-3.239-.198-4.8-.595-1.533-.423-2.829-.965-3.887-1.626-.634-.397-.991-.9-1.07-1.508-.08-.634.065-1.23.436-1.785.37-.582.82-.939 1.348-1.07.53-.133 1.098-.027 1.706.317.926.528 1.944.952 3.054 1.269 1.111.29 2.261.436 3.451.436 1.825 0 3.147-.317 3.967-.952.82-.66 1.23-1.48 1.23-2.46v-.277c0-1.11-.437-1.97-1.309-2.578-.846-.635-2.222-1.137-4.126-1.508-1.666-.317-3.107-.687-4.323-1.11-1.217-.423-2.235-.952-3.055-1.587a6.368 6.368 0 01-1.785-2.34c-.37-.926-.555-2.05-.555-3.372v-.278c0-1.11.212-2.155.635-3.133a7.063 7.063 0 011.983-2.539c.873-.74 1.944-1.322 3.213-1.745C99.336.212 100.803 0 102.47 0zM70.212.198c.609 0 1.204.185 1.785.556.582.343.992.952 1.23 1.824l5.157 18.644L83.42 1.944c.186-.714.543-1.204 1.072-1.468.555-.264 1.163-.33 1.824-.198.688.132 1.177.462 1.468.991.317.503.37 1.111.159 1.825l-6.546 23.404c-.237.872-.647 1.494-1.23 1.864-.581.344-1.176.516-1.784.516-.608 0-1.203-.172-1.785-.516-.582-.37-.992-1.018-1.23-1.944L70.173 7.021l-5.435 19.477c-.238.872-.66 1.494-1.27 1.864-.58.344-1.176.516-1.784.516a3.536 3.536 0 01-1.825-.516c-.582-.37-.991-1.005-1.23-1.904L52.243 3.332c-.211-.767-.159-1.415.159-1.944.344-.529.873-.886 1.587-1.07.66-.16 1.282-.146 1.864.039.608.185 1.018.688 1.23 1.507l4.879 19.398 5.196-18.684c.238-.872.648-1.48 1.23-1.824.581-.37 1.19-.556 1.824-.556zM46.357.436c.608 0 1.044.212 1.309.635.29.397.436.886.436 1.468 0 .555-.145 1.044-.436 1.467-.265.424-.701.635-1.31.635h-11.86v7.497h11.067c.582 0 1.005.212 1.27.635.29.397.436.873.436 1.428a2.53 2.53 0 01-.436 1.468c-.265.396-.688.595-1.27.595H34.496v8.171h12.138c.609 0 1.045.212 1.31.635.29.423.436.912.436 1.467 0 .582-.146 1.085-.437 1.508-.264.396-.7.595-1.309.595H32.83c-1.27 0-2.155-.238-2.657-.714-.476-.476-.714-1.336-.714-2.579V3.73c0-1.243.238-2.103.713-2.579.503-.476 1.389-.714 2.658-.714h13.527zM20.704.198c.608 0 1.15.172 1.626.516.476.317.714.833.714 1.547v23.166c0 1.243-.251 2.102-.754 2.578-.476.476-1.348.714-2.618.714-.476 0-.899-.04-1.269-.119a2.673 2.673 0 01-1.071-.516c-.344-.29-.7-.7-1.071-1.23-.37-.528-.807-1.242-1.309-2.141L7.455 11.305a26.953 26.953 0 01-1.071-2.142 16.131 16.131 0 01-.833-2.42v20.072c0 .714-.238 1.243-.714 1.587a2.864 2.864 0 01-1.627.476c-.608 0-1.15-.159-1.626-.476-.476-.344-.714-.873-.714-1.587V3.649c0-1.243.238-2.102.714-2.578C2.087.595 2.972.357 4.242.357c.476 0 .899.04 1.27.119.37.08.726.264 1.07.555.344.265.701.661 1.071 1.19.37.53.807 1.243 1.31 2.142l7.496 13.408a26.93 26.93 0 011.071 2.142c.318.714.595 1.52.833 2.42V2.26c0-.714.238-1.23.714-1.547a2.708 2.708 0 011.627-.516z" fill="#03C75A"/></svg>