<svg width="110" height="32" fill="none" xmlns="http://www.w3.org/2000/svg"><g clip-path="url(#clip0_37_465)"><path d="M64.401 13.507c3.617 0 6.563 2.95 6.563 6.57 0 3.621-2.946 6.57-6.563 6.57-3.617 0-6.563-2.949-6.563-6.57 0-3.62 2.946-6.57 6.563-6.57zm0-3.65c-5.637 0-10.209 4.578-10.209 10.22 0 5.643 4.572 10.22 10.209 10.22s10.209-4.576 10.209-10.22c0-5.643-4.572-10.22-10.209-10.22z" fill="url(#paint0_linear_37_465)"/><path d="M64.401 13.507c3.617 0 6.563 2.95 6.563 6.57 0 3.621-2.946 6.57-6.563 6.57-3.617 0-6.563-2.949-6.563-6.57 0-3.62 2.946-6.57 6.563-6.57zm0-3.65c-5.637 0-10.209 4.578-10.209 10.22 0 5.643 4.572 10.22 10.209 10.22s10.209-4.576 10.209-10.22c0-5.643-4.572-10.22-10.209-10.22z" fill="url(#paint1_linear_37_465)"/><path d="M81.815 9.492h-.489a2.452 2.452 0 00-2.45 2.453v17.28c0 .795.642 1.437 1.436 1.437h1.503c.794 0 1.436-.642 1.436-1.438V10.93c0-.796-.642-1.438-1.436-1.438z" fill="url(#paint2_linear_37_465)"/><path d="M81.815 9.492h-.489a2.452 2.452 0 00-2.45 2.453v17.28c0 .795.642 1.437 1.436 1.437h1.503c.794 0 1.436-.642 1.436-1.438V10.93c0-.796-.642-1.438-1.436-1.438z" fill="url(#paint3_linear_37_465)"/><path d="M97.79 9.492h-1.348c-.839 0-1.517.679-1.517 1.518v18.141c0 .84.678 1.519 1.517 1.519h.999c1.028 0 1.867-.84 1.867-1.87V11.01c0-.84-.679-1.518-1.517-1.518z" fill="url(#paint4_linear_37_465)"/><path d="M97.79 9.492h-1.348c-.839 0-1.517.679-1.517 1.518v18.141c0 .84.678 1.519 1.517 1.519h.999c1.028 0 1.867-.84 1.867-1.87V11.01c0-.84-.679-1.518-1.517-1.518z" fill="url(#paint5_linear_37_465)"/><path d="M97.79 9.492h-1.348c-.839 0-1.517.679-1.517 1.518v18.141c0 .84.678 1.519 1.517 1.519h.999c1.028 0 1.867-.84 1.867-1.87V11.01c0-.84-.679-1.518-1.517-1.518z" fill="url(#paint6_linear_37_465)"/><path d="M64.402 10.383v2.744c0 .57.394 1.088.963 1.183a5.847 5.847 0 014.754 6.935c-.445 2.27-2.275 4.103-4.543 4.548a5.85 5.85 0 01-6.985-6.212c.05-.555-.263-1.08-.788-1.256l-2.676-.861c-.678-.22-1.415.197-1.524.905a10.691 10.691 0 00.336 4.847c1.32 4.336 5.242 7.505 9.763 7.79 6.359.394 11.638-4.65 11.638-10.929 0-5.606-4.207-10.227-9.632-10.87-.693-.08-1.306.482-1.306 1.183v-.007z" fill="#00DEF2"/><path d="M44.983 20.712h3.208c.321 0 .584.263.584.584v4.548c0 .957-.16 1.913-.54 2.782-.569 1.277-1.597 2.423-4.426 2.642-4.113.322-5.017-1.898-5.381-2.453a73.937 73.937 0 01-.686-1.11L27.272 6.198c-.263-.445-.7-.664-.92-.715-.16-.037-.678-.03-.89-.015-.707.051-.97.745-1.108.971L14.168 30.1a.589.589 0 01-.773.263l-.365-.175a3.74 3.74 0 01-1.684-5.096l8.072-19.194c.036-.066.364-.737.547-1.073C20.293 4.24 21.78.678 25.878.7c3.727.022 5.433 3.088 5.929 4 .19.351 4.877 10.036 5.096 10.372l5.185 10.254c.11.175.321.38.496.482.233.146.386.233.78.219.183 0 .569-.132.773-.438.204-.307.226-.577.255-1.482v-2.818c0-.321.27-.584.591-.584v.007z" fill="#fff"/><path d="M44.983 20.712h3.208c.321 0 .584.263.584.584v4.548c0 .957-.16 1.913-.54 2.782-.569 1.277-1.597 2.423-4.426 2.642-4.113.322-5.017-1.898-5.381-2.453a73.937 73.937 0 01-.686-1.11L27.272 6.198c-.263-.445-.7-.664-.92-.715-.16-.037-.678-.03-.89-.015-.707.051-.97.745-1.108.971L14.168 30.1a.589.589 0 01-.773.263l-.365-.175a3.74 3.74 0 01-1.684-5.096l8.072-19.194c.036-.066.364-.737.547-1.073C20.293 4.24 21.78.678 25.878.7c3.727.022 5.433 3.088 5.929 4 .19.351 4.877 10.036 5.096 10.372l5.185 10.254c.11.175.321.38.496.482.233.146.386.233.78.219.183 0 .569-.132.773-.438.204-.307.226-.577.255-1.482v-2.818c0-.321.27-.584.591-.584v.007z" fill="url(#paint7_linear_37_465)"/><path d="M44.983 20.712h3.208c.321 0 .584.263.584.584v4.548c0 .957-.16 1.913-.54 2.782-.569 1.277-1.597 2.423-4.426 2.642-4.113.322-5.017-1.898-5.381-2.453a73.937 73.937 0 01-.686-1.11L27.272 6.198c-.263-.445-.7-.664-.92-.715-.16-.037-.678-.03-.89-.015-.707.051-.97.745-1.108.971L14.168 30.1a.589.589 0 01-.773.263l-.365-.175a3.74 3.74 0 01-1.684-5.096l8.072-19.194c.036-.066.364-.737.547-1.073C20.293 4.24 21.78.678 25.878.7c3.727.022 5.433 3.088 5.929 4 .19.351 4.877 10.036 5.096 10.372l5.185 10.254c.11.175.321.38.496.482.233.146.386.233.78.219.183 0 .569-.132.773-.438.204-.307.226-.577.255-1.482v-2.818c0-.321.27-.584.591-.584v.007z" fill="url(#paint8_linear_37_465)"/><path d="M15.267 15.637l-3.281 8.059-.667 1.62 4.153 1.768 3.384-7.905-3.589-3.542z" fill="url(#paint9_linear_37_465)"/><path d="M15.267 15.637l-3.281 8.059-.667 1.62 4.153 1.768 3.384-7.905-3.589-3.542z" fill="url(#paint10_linear_37_465)"/><path d="M78.876 14.428s.67-2.877 4.375 2.102l10.865 13.279.233.24c.38.388.89.607 1.43.607h1.888a1.64 1.64 0 001.633-1.635v-6.016s-.306 1.336-1.735 1.446c-1.43.11-2.64-1.41-2.64-1.41L84.272 10.413a2.66 2.66 0 00-2.035-.949h-1.174c-1.21 0-2.195.993-2.195 2.198v2.752l.008.015z" fill="#00DEF2"/><path d="M44.393 16.18h4.375v7.3h-4.375v-7.3z" fill="url(#paint11_linear_37_465)"/><path d="M44.393 16.18h4.375v7.3h-4.375v-7.3z" fill="url(#paint12_linear_37_465)"/><path d="M46.39 10.798c.802 0 1.458.657 1.458 1.46 0 .803-.656 1.46-1.458 1.46a1.464 1.464 0 01-1.458-1.46c0-.803.656-1.46 1.458-1.46zm0-3.65a5.103 5.103 0 00-5.104 5.11 5.103 5.103 0 1010.208 0 5.104 5.104 0 00-5.104-5.11zM13.882 25.287c-1.681-.41-.803-4.072-.153-5.852-3.794 7.289-4.051 11.293-.667 11.293 3.384 0 4.87-.616 10.92-8.777 4.84-6.53 9.674-9.206 11.485-9.753l1.436 2.874c1.897-1.95 2.204-8.366-4-6.518-6.203 1.848-11.792 9.804-13.073 11.6-1.282 1.797-3.846 5.646-5.948 5.133z" fill="#00DEF2"/><path d="M35.467 12.198l1.333 2.72a4.433 4.433 0 001.077-2.515c.082-.985-1.572-.547-2.41-.205z" fill="#007FA7"/></g><defs><linearGradient id="paint0_linear_37_465" x1="59.775" y1="12.894" x2="56.488" y2="19.096" gradientUnits="userSpaceOnUse"><stop stop-color="#fff"/><stop offset="1" stop-color="#869BB0"/></linearGradient><linearGradient id="paint1_linear_37_465" x1="59.365" y1="13.214" x2="55.393" y2="20.556" gradientUnits="userSpaceOnUse"><stop stop-color="#45515E"/><stop offset="1" stop-color="#202020"/></linearGradient><linearGradient id="paint2_linear_37_465" x1="79.463" y1="22.019" x2="79.463" y2="13.624" gradientUnits="userSpaceOnUse"><stop stop-color="#fff"/><stop offset="1" stop-color="#869BB0"/></linearGradient><linearGradient id="paint3_linear_37_465" x1="81.064" y1="9.492" x2="81.064" y2="30.662" gradientUnits="userSpaceOnUse"><stop stop-color="#202020"/><stop offset="1" stop-color="#546272"/></linearGradient><linearGradient id="paint4_linear_37_465" x1="97.116" y1="9.492" x2="97.116" y2="30.67" gradientUnits="userSpaceOnUse"><stop stop-color="#869BB0"/><stop offset="1" stop-color="#404B56"/></linearGradient><linearGradient id="paint5_linear_37_465" x1="95.505" y1="24.939" x2="95.505" y2="17.274" gradientUnits="userSpaceOnUse"><stop stop-color="#869BB0"/><stop offset="1" stop-color="#fff"/></linearGradient><linearGradient id="paint6_linear_37_465" x1="97.116" y1="9.492" x2="97.116" y2="30.67" gradientUnits="userSpaceOnUse"><stop stop-color="#546272"/><stop offset="1" stop-color="#202020"/></linearGradient><linearGradient id="paint7_linear_37_465" x1="33.212" y1="6.808" x2="43.915" y2="19.802" gradientUnits="userSpaceOnUse"><stop stop-color="#fff"/><stop offset=".272" stop-color="#869BB0"/><stop offset="1" stop-color="#fff"/></linearGradient><linearGradient id="paint8_linear_37_465" x1="34.955" y1="7.681" x2="42.54" y2="17.741" gradientUnits="userSpaceOnUse"><stop stop-color="#546272"/><stop offset=".272" stop-color="#202020"/><stop offset="1" stop-color="#546272"/></linearGradient><linearGradient id="paint9_linear_37_465" x1="16.788" y1="18.381" x2="13.501" y2="25.678" gradientUnits="userSpaceOnUse"><stop stop-color="#869BB0" stop-opacity="0"/><stop offset="1" stop-color="#869BB0"/></linearGradient><linearGradient id="paint10_linear_37_465" x1="16.788" y1="18.381" x2="13.501" y2="25.678" gradientUnits="userSpaceOnUse"><stop stop-color="#202121" stop-opacity="0"/><stop offset="1" stop-color="#222324"/></linearGradient><linearGradient id="paint11_linear_37_465" x1="46.581" y1="16.179" x2="46.581" y2="22.75" gradientUnits="userSpaceOnUse"><stop stop-color="#869BB0"/><stop offset="1" stop-color="#fff"/></linearGradient><linearGradient id="paint12_linear_37_465" x1="46.581" y1="16.179" x2="46.581" y2="22.75" gradientUnits="userSpaceOnUse"><stop stop-color="#212122"/><stop offset="1" stop-color="#546272"/></linearGradient><clipPath id="clip0_37_465"><path fill="#fff" transform="translate(10.2)" d="M0 0h89.6v32H0z"/></clipPath></defs></svg>